<svg width="32" height="30" viewBox="0 0 32 30" fill="none" xmlns="http://www.w3.org/2000/svg">
<path d="M12.4651 5.04165L12.4613 6.217L13.0207 4.15659C12.693 4.31706 12.4663 4.65212 12.4651 5.04165ZM13.038 7.42386C12.7649 7.34977 12.5584 7.15362 12.4592 6.91033L12.4509 9.55073L10.3524 11.8263L7.51583 11.8859C7.24843 11.8916 6.98273 11.9308 6.72527 12.003L3.60496 12.8781L1.79255 10.5022C1.46955 10.0787 0.866117 9.96273 0.427888 10.2654C-0.0399646 10.5886 -0.138163 11.233 0.202836 11.68L2.4393 14.6117C2.55944 14.7691 2.72408 14.8869 2.9119 14.9497C3.09972 15.0125 3.30207 15.0175 3.49277 14.9641L6.34423 14.1644L6.41098 20.3528L4.5042 28.4992C4.35032 29.1564 4.75833 29.8138 5.41525 29.9676C6.07665 30.1221 6.73066 29.7092 6.88356 29.0563L8.89424 20.4661L9.70709 20.4573L11.6672 24.1066L11.2635 28.6701C11.2003 29.3843 11.7628 29.9998 12.4822 29.9998C13.1083 29.9998 13.6416 29.521 13.6977 28.8854L14.1337 23.9579C14.1546 23.7205 14.1056 23.4821 13.9928 23.2721L11.7218 19.0439L11.6603 13.3263L14.1661 10.609C14.3339 10.4273 14.4273 10.1889 14.428 9.94165L14.4418 5.58516L14.109 6.81025C13.9829 7.27526 13.5037 7.55047 13.038 7.42386H13.038Z" fill="#00FC00"/>
<path d="M11.337 9.14799C11.3244 7.99747 10.3817 7.07479 9.2312 7.08733C8.08068 7.09987 7.158 8.04267 7.17054 9.19318C7.18283 10.3437 8.12563 11.2661 9.27615 11.2538C10.4267 11.2412 11.3493 10.2985 11.337 9.14799ZM23.702 6.91389C22.5662 6.86277 21.6038 7.74213 21.5527 8.87799C21.5016 10.0138 22.3809 10.9763 23.5167 11.0273C24.6526 11.0787 25.615 10.1991 25.6661 9.06324C25.7171 7.92738 24.8379 6.96502 23.702 6.91389Z" fill="#00FC00"/>
<path d="M30.2627 5.00517C30.1432 4.97595 30.0191 4.96945 29.8972 4.98602L30.3221 6.55114C30.4482 7.01639 30.1737 7.49576 29.7085 7.62218C29.3105 7.73001 28.8978 7.54452 28.7092 7.18844L28.2319 9.13569L24.9415 11.8111L22.6821 11.7093L19.4938 9.77268L19.0651 5.85806C19.0055 5.31491 18.5174 4.92308 17.9739 4.98245C17.4308 5.04206 17.039 5.53051 17.0984 6.0736L17.5804 10.4729C17.5969 10.6236 17.6479 10.7685 17.7294 10.8964C17.8108 11.0243 17.9205 11.1318 18.0501 11.2105L21.2147 13.1327C21.134 14.8824 20.9723 18.6035 20.9577 18.663L19.7651 23.4998C19.7308 23.6383 19.7212 23.7817 19.7364 23.9236L20.2759 28.9091C20.3486 29.5807 20.952 30.0653 21.6222 29.9927C22.293 29.92 22.7781 29.3173 22.7055 28.6464L22.1894 23.8753L23.1506 19.9772L23.5929 20.039L24.4971 24.0573C24.5221 24.1687 24.5627 24.276 24.6175 24.3761L27.3504 29.3648C27.6737 29.9552 28.4158 30.1744 29.0091 29.8495C29.6009 29.5253 29.8178 28.7825 29.4937 28.1907L26.8434 23.3528L26.1585 20.3087L26.4827 13.1137C26.4829 13.1119 26.4827 13.1097 26.4827 13.1077L29.7376 10.4613C29.9047 10.3253 30.0229 10.1386 30.0744 9.9294L30.9878 6.20136C31.1179 5.67057 30.7933 5.13511 30.2627 5.00517ZM18.5906 3.64098L19.2496 1.21303C19.274 1.12338 19.2461 1.02657 19.1758 0.965993C17.9619 -0.0770586 16.1949 0.917287 14.9353 0.0431304C14.7973 -0.0524634 14.6063 0.0185353 14.5623 0.180403C14.3873 0.825207 13.1714 5.27517 12.8458 6.4673C12.7705 6.74494 12.9796 7.01827 13.2672 7.01827C13.363 7.01821 13.4561 6.98662 13.5321 6.92837C13.6082 6.87012 13.6629 6.78846 13.6879 6.69599L14.6302 3.22565C14.7679 3.27297 14.9097 3.30635 15.0541 3.32979C16.1033 3.4985 17.2962 3.1386 18.2177 3.77795C18.3556 3.87355 18.5466 3.80279 18.5906 3.64098Z" fill="#00FC00"/>
<path d="M24.156 3.83901C24.2 4.00087 24.3909 4.07163 24.5289 3.97604C25.4503 3.33687 26.6433 3.69659 27.6925 3.52781C27.8369 3.50467 27.9786 3.47105 28.1163 3.42374L29.0583 6.89401C29.0727 6.94999 29.0981 7.00255 29.133 7.04864C29.1679 7.09473 29.2115 7.13343 29.2615 7.1625C29.3115 7.19158 29.3667 7.21043 29.424 7.21799C29.4813 7.22554 29.5395 7.22163 29.5953 7.2065C29.6511 7.19136 29.7033 7.1653 29.749 7.12982C29.7946 7.09434 29.8327 7.05015 29.8611 6.99981C29.8895 6.94948 29.9077 6.894 29.9145 6.8366C29.9213 6.77921 29.9166 6.72103 29.9007 6.66545C29.7475 6.10436 28.5583 1.75636 28.184 0.378183C28.1402 0.216316 27.949 0.145559 27.8113 0.241153C26.5514 1.11507 24.7845 0.120722 23.5708 1.16408C23.5002 1.22465 23.4723 1.3214 23.4967 1.41112L24.156 3.83901Z" fill="#00FC00"/>
</svg>
