<svg width="101" height="101" viewBox="0 0 101 101" fill="currentColor" xmlns="http://www.w3.org/2000/svg">
<path d="M100.286 39.3482C100.286 38.0982 99.8169 36.9107 98.9419 36.0357C98.0484 35.1602 96.8491 34.667 95.5981 34.6607L65.9106 34.692V4.97321C65.9106 3.75446 65.4419 2.53571 64.5669 1.66071C63.6734 0.785211 62.4741 0.292038 61.2231 0.285706L39.3794 0.316956C36.7856 0.316956 34.6919 2.41071 34.6919 5.00446V34.6607H4.97314C3.75439 34.6607 2.56689 35.1607 1.66064 36.0357C0.781317 36.9139 0.286739 38.1054 0.285645 39.3482V61.2545C0.285645 63.8482 2.41064 65.942 4.97314 65.942H34.6919L34.6606 95.5982C34.6606 96.8482 35.1606 98.0357 36.0356 98.9107C36.9106 99.817 38.0981 100.286 39.3481 100.286H61.2231C63.8169 100.286 65.9106 98.192 65.9106 95.5982V65.9107H95.5981C98.1919 65.9107 100.286 63.817 100.286 61.2232V39.3482Z"/>
</svg>
