<svg width="30" height="30" viewBox="0 0 30 30" fill="none" xmlns="http://www.w3.org/2000/svg">
<path fill-rule="evenodd" clip-rule="evenodd" d="M27.1156 8.15263C27.2473 8.28908 27.405 8.39791 27.5793 8.47278C27.7536 8.54765 27.941 8.58706 28.1307 8.58871C28.3204 8.59036 28.5085 8.55421 28.6841 8.48238C28.8597 8.41055 29.0192 8.30448 29.1533 8.17034C29.2874 8.03621 29.3935 7.8767 29.4653 7.70114C29.5372 7.52557 29.5733 7.33745 29.5717 7.14777C29.57 6.95808 29.5306 6.77062 29.4557 6.59633C29.3809 6.42203 29.272 6.2644 29.1356 6.13262L27.2884 4.28545L29.1356 2.43829C29.3958 2.16886 29.5398 1.80799 29.5366 1.43342C29.5333 1.05885 29.3831 0.700545 29.1182 0.435673C28.8533 0.170802 28.495 0.0205589 28.1204 0.017304C27.7459 0.014049 27.385 0.158042 27.1156 0.418271L25.2684 2.26543L23.4212 0.418271C23.1518 0.158042 22.7909 0.014049 22.4164 0.017304C22.0418 0.0205589 21.6835 0.170802 21.4186 0.435673C21.1538 0.700545 21.0035 1.05885 21.0003 1.43342C20.997 1.80799 21.141 2.16886 21.4012 2.43829L23.2484 4.28545L21.4012 6.13262C21.141 6.40205 20.997 6.76291 21.0003 7.13748C21.0035 7.51205 21.1538 7.87036 21.4186 8.13523C21.6835 8.4001 22.0418 8.55035 22.4164 8.5536C22.7909 8.55686 23.1518 8.41286 23.4212 8.15263L25.2684 6.30547L27.1156 8.15263ZM1.40102 26.1328C1.14079 26.4022 0.996799 26.7631 1.00005 27.1377C1.00331 27.5123 1.15355 27.8706 1.41842 28.1354C1.68329 28.4003 2.0416 28.5505 2.41617 28.5538C2.79074 28.5571 3.15161 28.4131 3.42104 28.1528L5.2682 26.3057L7.11536 28.1528C7.3848 28.4131 7.74566 28.5571 8.12023 28.5538C8.4948 28.5505 8.85311 28.4003 9.11798 28.1354C9.38285 27.8706 9.5331 27.5123 9.53635 27.1377C9.53961 26.7631 9.39561 26.4022 9.13538 26.1328L7.28822 24.2857L9.13538 22.4385C9.27183 22.3067 9.38066 22.1491 9.45553 21.9748C9.5304 21.8005 9.56981 21.613 9.57146 21.4233C9.57311 21.2337 9.53696 21.0455 9.46513 20.87C9.3933 20.6944 9.28723 20.5349 9.15309 20.4008C9.01896 20.2666 8.85945 20.1606 8.68389 20.0887C8.50832 20.0169 8.3202 19.9807 8.13052 19.9824C7.94083 19.984 7.75337 20.0235 7.57908 20.0983C7.40478 20.1732 7.24715 20.282 7.11536 20.4185L5.2682 22.2656L3.42104 20.4185C3.15161 20.1582 2.79074 20.0143 2.41617 20.0175C2.0416 20.0208 1.68329 20.171 1.41842 20.4359C1.15355 20.7007 1.00331 21.0591 1.00005 21.4336C0.996799 21.8082 1.14079 22.1691 1.40102 22.4385L3.24818 24.2857L1.40102 26.1328ZM23.8398 25.7142C23.8398 25.3354 23.9903 24.972 24.2582 24.7041C24.5262 24.4362 24.8895 24.2857 25.2684 24.2857C25.6473 24.2857 26.0107 24.4362 26.2786 24.7041C26.5465 24.972 26.697 25.3354 26.697 25.7142C26.697 26.0931 26.5465 26.4565 26.2786 26.7244C26.0107 26.9923 25.6473 27.1428 25.2684 27.1428C24.8895 27.1428 24.5262 26.9923 24.2582 26.7244C23.9903 26.4565 23.8398 26.0931 23.8398 25.7142ZM25.2684 30C26.288 30.0011 27.2746 29.6387 28.051 28.9778C28.8274 28.3169 29.3428 27.4009 29.5045 26.3942C29.6663 25.3875 29.4639 24.3561 28.9336 23.4853C28.4033 22.6144 27.5799 21.9611 26.6113 21.6428C26.3187 19.6006 25.2996 17.7325 23.7409 16.3811C22.1822 15.0297 20.1884 14.2857 18.1255 14.2856H15.2683C13.6107 14.2856 12.021 13.6271 10.8488 12.455C9.67673 11.2828 9.01824 9.69311 9.01824 8.03549V5.1426L10.3983 6.67119C10.6521 6.95251 11.0073 7.12147 11.3857 7.14089C11.7642 7.16032 12.1348 7.02862 12.4161 6.77476C12.6975 6.52091 12.8664 6.1657 12.8858 5.78728C12.9053 5.40885 12.7736 5.03821 12.5197 4.75689L8.64967 0.471128C8.51443 0.321372 8.349 0.201964 8.16428 0.120767C7.97955 0.0395697 7.77972 -0.00157358 7.57795 4.60241e-05C7.37617 0.00166563 7.17703 0.0460114 6.99363 0.130163C6.81024 0.214315 6.64675 0.336364 6.51393 0.488272L2.76389 4.77403C2.6393 4.91512 2.54382 5.07945 2.48294 5.25756C2.42206 5.43567 2.39697 5.62406 2.40913 5.81189C2.42129 5.99973 2.47044 6.18331 2.55377 6.35209C2.63711 6.52087 2.75297 6.67151 2.89471 6.79537C3.03645 6.91922 3.20127 7.01385 3.37969 7.07381C3.55812 7.13376 3.74663 7.15787 3.9344 7.14473C4.12217 7.1316 4.3055 7.08149 4.47384 6.99728C4.64218 6.91307 4.79222 6.79643 4.91534 6.65405L6.16107 5.23118V8.03549C6.16107 10.4509 7.12058 12.7673 8.82852 14.4753C10.5365 16.1832 12.8529 17.1427 15.2683 17.1427H18.1255C19.4427 17.1427 20.7196 17.5977 21.74 18.4307C22.7604 19.2637 23.4618 20.4236 23.7255 21.7142C22.7926 22.075 22.0151 22.7506 21.5278 23.6242C21.0405 24.4978 20.874 25.5142 21.0571 26.4976C21.2402 27.481 21.7614 28.3694 22.5305 29.009C23.2996 29.6486 24.2681 29.9992 25.2684 30Z" fill="#00FC00"/>
</svg>
