<svg xmlns="http://www.w3.org/2000/svg" version="1.1" xmlns:xlink="http://www.w3.org/1999/xlink" width="512" height="512" x="0" y="0" viewBox="0 0 120 120" style="enable-background:new 0 0 512 512" xml:space="preserve" class=""><g><g fill="#000"><path d="M24 25c0-8.284 6.716-15 15-15h41c8.284 0 15 6.716 15 15z" fill="#000000" opacity="1" data-original="#000000" class=""></path><path fill-rule="evenodd" d="M79 29H40v34h39zM59.414 42.414a2 2 0 1 0-2.828-2.828l-7 7a2 2 0 1 0 2.828 2.828zm11 0a2 2 0 1 0-2.828-2.828l-7 7a2 2 0 1 0 2.828 2.828z" clip-rule="evenodd" fill="#000000" opacity="1" data-original="#000000" class=""></path><path d="M36 29H24v37.342c0 3.995 4.455 6.377 7.777 4.158l6.127-4.093A3.998 3.998 0 0 1 36 63zM69 67v21H50V67zM81.096 66.407A3.998 3.998 0 0 0 83 63V29h12v37.342c0 3.995-4.455 6.377-7.777 4.158zM35 97a5 5 0 0 1 5-5h39a5 5 0 0 1 5 5v8a5 5 0 0 1-5 5H40a5 5 0 0 1-5-5z" fill="#000000" opacity="1" data-original="#000000" class=""></path></g></g></svg>