<svg width="84" height="100" viewBox="0 0 84 100" fill="none" xmlns="http://www.w3.org/2000/svg">
<path d="M81.0791 70.4708C77.9708 67.8486 75.4732 64.5787 73.761 60.8901C72.0487 57.2015 71.1633 53.1833 71.1666 49.1167V37.5C71.1666 22.8375 60.2749 10.7 46.1666 8.66667V4.16667C46.1666 3.0616 45.7276 2.00179 44.9462 1.22039C44.1648 0.438987 43.105 0 42 0C40.8949 0 39.8351 0.438987 39.0537 1.22039C38.2723 2.00179 37.8333 3.0616 37.8333 4.16667V8.66667C23.7208 10.7 12.8333 22.8375 12.8333 37.5V49.1167C12.8349 53.1915 11.9451 57.2174 10.2263 60.9121C8.50743 64.6067 6.00119 67.8806 2.88329 70.5042C1.75645 71.4755 0.9533 72.768 0.581391 74.2085C0.209481 75.649 0.286569 77.1687 0.802329 78.5641C1.31809 79.9596 2.2479 81.1641 3.46724 82.0165C4.68658 82.8689 6.13724 83.3283 7.62495 83.3333H76.3749C80.3958 83.3333 83.6666 80.0625 83.6666 76.0417C83.6666 73.9083 82.7374 71.8917 81.0791 70.4708ZM42 100C45.6 99.9951 49.0883 98.7491 51.8769 96.4721C54.6654 94.1952 56.5837 91.0264 57.3083 87.5H26.6916C27.4162 91.0264 29.3345 94.1952 32.123 96.4721C34.9116 98.7491 38.3999 99.9951 42 100Z" fill="black"/>
</svg>
